<?xml version="1.0" encoding="UTF-8" standalone="no"?>
<!DOCTYPE svg PUBLIC "-//W3C//DTD SVG 1.1//EN"
 "http://www.w3.org/Graphics/SVG/1.1/DTD/svg11.dtd">
<!-- Generated by graphviz version 2.38.0 (20140413.2041)
 -->
<!-- Title: ERD Pages: 1 -->
<svg width="1336pt" height="283pt"
 viewBox="0.00 0.00 1336.00 283.00" xmlns="http://www.w3.org/2000/svg" xmlns:xlink="http://www.w3.org/1999/xlink">
<g id="graph0" class="graph" transform="scale(1 1) rotate(0) translate(4 279)">
<title>ERD</title>
<polygon fill="white" stroke="none" points="-4,4 -4,-279 1332,-279 1332,4 -4,4"/>
<!-- customers -->
<g id="node1" class="node"><title>customers</title>
<polygon fill="whitesmoke" stroke="whitesmoke" points="987.5,-173 777.5,-173 777.5,-113 987.5,-113 987.5,-173"/>
<polygon fill="gray" stroke="none" points="785.5,-117 785.5,-169 979.5,-169 979.5,-117 785.5,-117"/>
<polygon fill="none" stroke="gray" points="785.5,-148 785.5,-169 979.5,-169 979.5,-148 785.5,-148"/>
<text text-anchor="start" x="790.5" y="-156" font-family="monospace" font-size="10.00">customers(顧客)</text>
<polygon fill="white" stroke="none" points="785.5,-117 785.5,-148 979.5,-148 979.5,-117 785.5,-117"/>
<text text-anchor="start" x="788.5" y="-137" font-family="monospace" font-size="10.00">id</text>
<text text-anchor="start" x="816.5" y="-137" font-family="monospace" font-size="10.00">ID</text>
<text text-anchor="start" x="849.5" y="-137" font-family="monospace" font-size="10.00">INTEGER PRIMARY KEY</text>
<text text-anchor="start" x="788.5" y="-123" font-family="monospace" font-size="10.00">name</text>
<text text-anchor="start" x="816.5" y="-123" font-family="monospace" font-size="10.00">顧客名</text>
<text text-anchor="start" x="849.5" y="-123" font-family="monospace" font-size="10.00">VARCHAR(100) NOT NULL</text>
<polygon fill="gray" stroke="gray" points="786.5,-133 786.5,-133 815.5,-133 815.5,-133 786.5,-133"/>
<polygon fill="gray" stroke="gray" points="815.5,-133 815.5,-133 848.5,-133 848.5,-133 815.5,-133"/>
<polygon fill="gray" stroke="gray" points="848.5,-133 848.5,-133 979.5,-133 979.5,-133 848.5,-133"/>
<polygon fill="none" stroke="gray" points="785.5,-117 785.5,-148 979.5,-148 979.5,-117 785.5,-117"/>
</g>
<!-- offices -->
<g id="node2" class="node"><title>offices</title>
<polygon fill="whitesmoke" stroke="whitesmoke" points="1328,-102 1084,-102 1084,-7.10543e-15 1328,-7.10543e-15 1328,-102"/>
<polygon fill="gray" stroke="none" points="1092,-4 1092,-98 1320,-98 1320,-4 1092,-4"/>
<polygon fill="none" stroke="gray" points="1092,-77 1092,-98 1320,-98 1320,-77 1092,-77"/>
<text text-anchor="start" x="1097" y="-85" font-family="monospace" font-size="10.00">offices(自社事業所)</text>
<polygon fill="white" stroke="none" points="1092,-4 1092,-77 1320,-77 1320,-4 1092,-4"/>
<text text-anchor="start" x="1095" y="-66" font-family="monospace" font-size="10.00">id</text>
<text text-anchor="start" x="1147" y="-66" font-family="monospace" font-size="10.00">ID</text>
<text text-anchor="start" x="1190" y="-66" font-family="monospace" font-size="10.00">INTEGER PRIMARY KEY</text>
<text text-anchor="start" x="1095" y="-52" font-family="monospace" font-size="10.00">name</text>
<text text-anchor="start" x="1147" y="-52" font-family="monospace" font-size="10.00">事業所名</text>
<text text-anchor="start" x="1190" y="-52" font-family="monospace" font-size="10.00">VARCHAR(100) NOT NULL</text>
<text text-anchor="start" x="1095" y="-38" font-family="monospace" font-size="10.00">address1</text>
<text text-anchor="start" x="1147" y="-38" font-family="monospace" font-size="10.00">住所1</text>
<text text-anchor="start" x="1190" y="-38" font-family="monospace" font-size="10.00">VARCHAR(100) NOT NULL</text>
<text text-anchor="start" x="1095" y="-24" font-family="monospace" font-size="10.00">address2</text>
<text text-anchor="start" x="1147" y="-24" font-family="monospace" font-size="10.00">住所2</text>
<text text-anchor="start" x="1190" y="-24" font-family="monospace" font-size="10.00">VARCHAR(100) NOT NULL</text>
<text text-anchor="start" x="1095" y="-10" font-family="monospace" font-size="10.00">tel</text>
<text text-anchor="start" x="1147" y="-10" font-family="monospace" font-size="10.00">電話番号</text>
<text text-anchor="start" x="1190" y="-10" font-family="monospace" font-size="10.00">VARCHAR(30) NOT NULL</text>
<polygon fill="gray" stroke="gray" points="1093,-62 1093,-62 1146,-62 1146,-62 1093,-62"/>
<polygon fill="gray" stroke="gray" points="1146,-62 1146,-62 1189,-62 1189,-62 1146,-62"/>
<polygon fill="gray" stroke="gray" points="1189,-62 1189,-62 1320,-62 1320,-62 1189,-62"/>
<polygon fill="none" stroke="gray" points="1092,-4 1092,-77 1320,-77 1320,-4 1092,-4"/>
</g>
<!-- products -->
<g id="node3" class="node"><title>products</title>
<polygon fill="whitesmoke" stroke="whitesmoke" points="594.5,-275 388.5,-275 388.5,-201 594.5,-201 594.5,-275"/>
<polygon fill="gray" stroke="none" points="396.5,-205 396.5,-271 586.5,-271 586.5,-205 396.5,-205"/>
<polygon fill="none" stroke="gray" points="396.5,-250 396.5,-271 586.5,-271 586.5,-250 396.5,-250"/>
<text text-anchor="start" x="401.5" y="-258" font-family="monospace" font-size="10.00">products(商品)</text>
<polygon fill="white" stroke="none" points="396.5,-205 396.5,-250 586.5,-250 586.5,-205 396.5,-205"/>
<text text-anchor="start" x="399.5" y="-239" font-family="monospace" font-size="10.00">id</text>
<text text-anchor="start" x="433.5" y="-239" font-family="monospace" font-size="10.00">ID</text>
<text text-anchor="start" x="456.5" y="-239" font-family="monospace" font-size="10.00">INTEGER PRIMARY KEY</text>
<text text-anchor="start" x="399.5" y="-225" font-family="monospace" font-size="10.00">name</text>
<text text-anchor="start" x="433.5" y="-225" font-family="monospace" font-size="10.00">品名</text>
<text text-anchor="start" x="456.5" y="-225" font-family="monospace" font-size="10.00">VARCHAR(100) NOT NULL</text>
<text text-anchor="start" x="399.5" y="-211" font-family="monospace" font-size="10.00">price</text>
<text text-anchor="start" x="433.5" y="-211" font-family="monospace" font-size="10.00">単価</text>
<text text-anchor="start" x="456.5" y="-211" font-family="monospace" font-size="10.00">DECIMAL(8) NOT NULL</text>
<polygon fill="gray" stroke="gray" points="397.5,-235 397.5,-235 432.5,-235 432.5,-235 397.5,-235"/>
<polygon fill="gray" stroke="gray" points="432.5,-235 432.5,-235 455.5,-235 455.5,-235 432.5,-235"/>
<polygon fill="gray" stroke="gray" points="455.5,-235 455.5,-235 586.5,-235 586.5,-235 455.5,-235"/>
<polygon fill="none" stroke="gray" points="396.5,-205 396.5,-250 586.5,-250 586.5,-205 396.5,-205"/>
</g>
<!-- employees -->
<g id="node4" class="node"><title>employees</title>
<polygon fill="whitesmoke" stroke="whitesmoke" points="1048,-95 717,-95 717,-7 1048,-7 1048,-95"/>
<polygon fill="gray" stroke="none" points="725,-11 725,-91 1040,-91 1040,-11 725,-11"/>
<polygon fill="none" stroke="gray" points="725.5,-70 725.5,-91 1040.5,-91 1040.5,-70 725.5,-70"/>
<text text-anchor="start" x="730.5" y="-78" font-family="monospace" font-size="10.00">employees(従業員)</text>
<polygon fill="white" stroke="none" points="725.5,-11 725.5,-70 1040.5,-70 1040.5,-11 725.5,-11"/>
<text text-anchor="start" x="728.5" y="-59" font-family="monospace" font-size="10.00">id</text>
<text text-anchor="start" x="852.5" y="-59" font-family="monospace" font-size="10.00">ID</text>
<text text-anchor="start" x="916.5" y="-59" font-family="monospace" font-size="10.00">INTEGER PRIMARY KEY</text>
<text text-anchor="start" x="728.5" y="-45" font-family="monospace" font-size="10.00">last_name</text>
<text text-anchor="start" x="852.5" y="-45" font-family="monospace" font-size="10.00">姓</text>
<text text-anchor="start" x="916.5" y="-45" font-family="monospace" font-size="10.00">VARCHAR(30) NOT NULL</text>
<text text-anchor="start" x="728.5" y="-31" font-family="monospace" font-size="10.00">first_name</text>
<text text-anchor="start" x="852.5" y="-31" font-family="monospace" font-size="10.00">姓</text>
<text text-anchor="start" x="916.5" y="-31" font-family="monospace" font-size="10.00">VARCHAR(30) NOT NULL</text>
<text text-anchor="start" x="728.5" y="-18" font-family="monospace" font-style="italic" font-size="10.00">belong_office_id[FK]</text>
<text text-anchor="start" x="852.5" y="-17" font-family="monospace" font-size="10.00">所属事業所ID</text>
<text text-anchor="start" x="916.5" y="-17" font-family="monospace" font-size="10.00">INTEGER NOT NULL</text>
<polygon fill="gray" stroke="gray" points="726.5,-55 726.5,-55 851.5,-55 851.5,-55 726.5,-55"/>
<polygon fill="gray" stroke="gray" points="851.5,-55 851.5,-55 915.5,-55 915.5,-55 851.5,-55"/>
<polygon fill="gray" stroke="gray" points="915.5,-55 915.5,-55 1040.5,-55 1040.5,-55 915.5,-55"/>
<polygon fill="none" stroke="gray" points="725.5,-11 725.5,-70 1040.5,-70 1040.5,-11 725.5,-11"/>
</g>
<!-- employees&#45;&gt;offices -->
<g id="edge1" class="edge"><title>employees&#45;&gt;offices</title>
<path fill="none" stroke="black" d="M1053.1,-51C1057.3,-51 1061.5,-51 1065.67,-51"/>
<polygon fill="black" stroke="black" points="1049.02,-56 1049.02,-46 1051.02,-46.0001 1051.02,-56.0001 1049.02,-56"/>
<polyline fill="none" stroke="black" points="1048.02,-51 1053.02,-51.0001 "/>
<polygon fill="black" stroke="black" points="1073.81,-51.0001 1083.81,-55.5 1078.81,-51 1083.81,-51 1083.81,-51 1083.81,-51 1078.81,-51 1083.81,-46.5 1073.81,-51.0001 1073.81,-51.0001"/>
<ellipse fill="none" stroke="black" cx="1069.81" cy="-51.0001" rx="4" ry="4"/>
</g>
<!-- estimates -->
<g id="node5" class="node"><title>estimates</title>
<polygon fill="whitesmoke" stroke="whitesmoke" points="681,-183 302,-183 302,-11 681,-11 681,-183"/>
<polygon fill="gray" stroke="none" points="310,-15 310,-179 673,-179 673,-15 310,-15"/>
<polygon fill="none" stroke="gray" points="310.5,-158 310.5,-179 673.5,-179 673.5,-158 310.5,-158"/>
<text text-anchor="start" x="315.5" y="-166" font-family="monospace" font-size="10.00">estimates(見積)</text>
<polygon fill="white" stroke="none" points="310.5,-15 310.5,-158 673.5,-158 673.5,-15 310.5,-15"/>
<text text-anchor="start" x="313.5" y="-147" font-family="monospace" font-size="10.00">id</text>
<text text-anchor="start" x="437.5" y="-147" font-family="monospace" font-size="10.00">ID</text>
<text text-anchor="start" x="501.5" y="-147" font-family="monospace" font-size="10.00">INTEGER PRIMARY KEY</text>
<text text-anchor="start" x="313.5" y="-134" font-family="monospace" text-decoration="underline" font-size="10.00">title</text>
<text text-anchor="start" x="437.5" y="-133" font-family="monospace" font-size="10.00">件名</text>
<text text-anchor="start" x="501.5" y="-133" font-family="monospace" font-size="10.00">VARCHAR(100) NOT NULL UNIQUE</text>
<text text-anchor="start" x="313.5" y="-120" font-family="monospace" font-style="italic" font-size="10.00">customer_id[FK]</text>
<text text-anchor="start" x="437.5" y="-119" font-family="monospace" font-size="10.00">顧客ID</text>
<text text-anchor="start" x="501.5" y="-119" font-family="monospace" font-size="10.00">INTEGER NOT NULL</text>
<text text-anchor="start" x="313.5" y="-106" font-family="monospace" font-style="italic" font-size="10.00">pic_employees_id[FK]</text>
<text text-anchor="start" x="437.5" y="-105" font-family="monospace" font-size="10.00">担当従業員ID</text>
<text text-anchor="start" x="501.5" y="-105" font-family="monospace" font-size="10.00">INTEGER NOT NULL</text>
<text text-anchor="start" x="313.5" y="-91" font-family="monospace" font-size="10.00" fill="red">issued_date</text>
<text text-anchor="start" x="437.5" y="-91" font-family="monospace" font-size="10.00">発行日</text>
<text text-anchor="start" x="501.5" y="-91" font-family="monospace" font-size="10.00">DATE </text>
<text text-anchor="start" x="313.5" y="-77" font-family="monospace" font-size="10.00">due_date</text>
<text text-anchor="start" x="437.5" y="-77" font-family="monospace" font-size="10.00">納期</text>
<text text-anchor="start" x="501.5" y="-77" font-family="monospace" font-size="10.00">DATE NOT NULL</text>
<text text-anchor="start" x="313.5" y="-63" font-family="monospace" font-size="10.00">delivery_location</text>
<text text-anchor="start" x="437.5" y="-63" font-family="monospace" font-size="10.00">納入場所</text>
<text text-anchor="start" x="501.5" y="-63" font-family="monospace" font-size="10.00">VARCHAR(50) NOT NULL</text>
<text text-anchor="start" x="313.5" y="-49" font-family="monospace" font-size="10.00">payment_term</text>
<text text-anchor="start" x="437.5" y="-49" font-family="monospace" font-size="10.00">支払条件</text>
<text text-anchor="start" x="501.5" y="-49" font-family="monospace" font-size="10.00">VARCHAR(50) NOT NULL</text>
<text text-anchor="start" x="313.5" y="-35" font-family="monospace" font-size="10.00">effective_date</text>
<text text-anchor="start" x="437.5" y="-35" font-family="monospace" font-size="10.00">見積有効期限</text>
<text text-anchor="start" x="501.5" y="-35" font-family="monospace" font-size="10.00">VARCHAR(50) NOT NULL</text>
<text text-anchor="start" x="313.5" y="-21" font-family="monospace" font-size="10.00">remarks</text>
<text text-anchor="start" x="437.5" y="-21" font-family="monospace" font-size="10.00">摘要</text>
<text text-anchor="start" x="501.5" y="-21" font-family="monospace" font-size="10.00">VARCHAR(1000) NOT NULL</text>
<polygon fill="gray" stroke="gray" points="311.5,-143 311.5,-143 436.5,-143 436.5,-143 311.5,-143"/>
<polygon fill="gray" stroke="gray" points="436.5,-143 436.5,-143 500.5,-143 500.5,-143 436.5,-143"/>
<polygon fill="gray" stroke="gray" points="500.5,-143 500.5,-143 673.5,-143 673.5,-143 500.5,-143"/>
<polygon fill="none" stroke="gray" points="310.5,-15 310.5,-158 673.5,-158 673.5,-15 310.5,-15"/>
</g>
<!-- estimates&#45;&gt;customers -->
<g id="edge3" class="edge"><title>estimates&#45;&gt;customers</title>
<path fill="none" stroke="black" d="M686.066,-119.89C711.015,-122.84 735.985,-125.793 759.332,-128.553"/>
<polygon fill="black" stroke="black" points="681.424,-124.375 682.598,-114.445 684.584,-114.68 683.41,-124.61 681.424,-124.375"/>
<polyline fill="none" stroke="black" points="681.018,-119.293 685.983,-119.88 "/>
<polygon fill="black" stroke="black" points="767.328,-129.499 776.73,-135.142 772.293,-130.086 777.259,-130.673 777.259,-130.673 777.259,-130.673 772.293,-130.086 777.787,-126.204 767.328,-129.499 767.328,-129.499"/>
<ellipse fill="none" stroke="black" cx="763.356" cy="-129.029" rx="4" ry="4"/>
</g>
<!-- estimates&#45;&gt;employees -->
<g id="edge2" class="edge"><title>estimates&#45;&gt;employees</title>
<path fill="none" stroke="black" d="M686.087,-74.108C690.283,-73.6118 694.479,-73.1156 698.668,-72.6203"/>
<polygon fill="black" stroke="black" points="682.598,-79.5554 681.424,-69.6246 683.41,-69.3897 684.584,-79.3205 682.598,-79.5554"/>
<polyline fill="none" stroke="black" points="681.018,-74.7074 685.983,-74.1202 "/>
<polygon fill="black" stroke="black" points="707.033,-71.6311 717.492,-74.9256 711.999,-71.0439 716.964,-70.4567 716.964,-70.4567 716.964,-70.4567 711.999,-71.0439 716.436,-65.9878 707.033,-71.6311 707.033,-71.6311"/>
<ellipse fill="none" stroke="black" cx="703.061" cy="-72.1008" rx="4" ry="4"/>
</g>
<!-- estimates_detail -->
<g id="node6" class="node"><title>estimates_detail</title>
<polygon fill="whitesmoke" stroke="whitesmoke" points="266,-211 0,-211 0,-123 266,-123 266,-211"/>
<polygon fill="gray" stroke="none" points="8,-127 8,-207 258,-207 258,-127 8,-127"/>
<polygon fill="none" stroke="gray" points="8,-186 8,-207 258,-207 258,-186 8,-186"/>
<text text-anchor="start" x="13" y="-194" font-family="monospace" font-size="10.00">estimates_detail(見積明細)</text>
<polygon fill="white" stroke="none" points="8,-127 8,-186 258,-186 258,-127 8,-127"/>
<text text-anchor="start" x="11" y="-176" font-family="monospace" font-style="italic" font-size="10.00">estimate_id[FK]</text>
<text text-anchor="start" x="105" y="-175" font-family="monospace" font-size="10.00">見積ID</text>
<text text-anchor="start" x="140" y="-175" font-family="monospace" font-size="10.00">INTEGER PRIMARY KEY</text>
<text text-anchor="start" x="11" y="-161" font-family="monospace" font-size="10.00">display_no</text>
<text text-anchor="start" x="105" y="-161" font-family="monospace" font-size="10.00">表示NO</text>
<text text-anchor="start" x="140" y="-161" font-family="monospace" font-size="10.00">INTEGER PRIMARY KEY</text>
<text text-anchor="start" x="11" y="-148" font-family="monospace" font-style="italic" font-size="10.00">product_id[FK]</text>
<text text-anchor="start" x="105" y="-147" font-family="monospace" font-size="10.00">商品ID</text>
<text text-anchor="start" x="140" y="-147" font-family="monospace" font-size="10.00">INTEGER NOT NULL</text>
<text text-anchor="start" x="11" y="-133" font-family="monospace" font-size="10.00">quantity</text>
<text text-anchor="start" x="105" y="-133" font-family="monospace" font-size="10.00">数量</text>
<text text-anchor="start" x="140" y="-133" font-family="monospace" font-size="10.00">DECIMAL(5) NOT NULL</text>
<polygon fill="gray" stroke="gray" points="9,-157 9,-157 104,-157 104,-157 9,-157"/>
<polygon fill="gray" stroke="gray" points="104,-157 104,-157 139,-157 139,-157 104,-157"/>
<polygon fill="gray" stroke="gray" points="139,-157 139,-157 258,-157 258,-157 139,-157"/>
<polygon fill="none" stroke="gray" points="8,-127 8,-186 258,-186 258,-127 8,-127"/>
</g>
<!-- estimates_detail&#45;&gt;products -->
<g id="edge5" class="edge"><title>estimates_detail&#45;&gt;products</title>
<path fill="none" stroke="black" d="M271.457,-194.376C304.088,-200.874 338.646,-207.757 370.432,-214.087"/>
<polygon fill="black" stroke="black" points="266.245,-198.436 268.198,-188.629 270.16,-189.019 268.206,-198.827 266.245,-198.436"/>
<polyline fill="none" stroke="black" points="266.241,-193.337 271.145,-194.314 "/>
<polygon fill="black" stroke="black" points="378.474,-215.689 387.402,-222.056 383.378,-216.666 388.281,-217.642 388.281,-217.642 388.281,-217.642 383.378,-216.666 389.16,-213.229 378.474,-215.689 378.474,-215.689"/>
<ellipse fill="none" stroke="black" cx="374.551" cy="-214.908" rx="4" ry="4"/>
</g>
<!-- estimates_detail&#45;&gt;estimates -->
<g id="edge4" class="edge"><title>estimates_detail&#45;&gt;estimates</title>
<path fill="none" stroke="black" d="M271.189,-140.062C275.455,-139.225 279.754,-138.381 284.076,-137.532"/>
<polygon fill="black" stroke="black" points="268.186,-145.748 266.259,-135.935 268.221,-135.55 270.148,-145.362 268.186,-145.748"/>
<polyline fill="none" stroke="black" points="266.241,-141.034 271.147,-140.071 "/>
<polygon fill="black" stroke="black" points="292.132,-135.95 302.811,-138.439 297.038,-134.987 301.944,-134.024 301.944,-134.024 301.944,-134.024 297.038,-134.987 301.077,-129.608 292.132,-135.95 292.132,-135.95"/>
<ellipse fill="none" stroke="black" cx="288.207" cy="-136.721" rx="4" ry="4"/>
</g>
</g>
</svg>
